<svg width="1056.8793" height="531.39056" xmlns="http://www.w3.org/2000/svg">
 <title>pure love</title>

 <g>
  <title>background</title>
  <rect fill="none" id="canvas_background" height="402" width="582" y="-1" x="-1"/>
 </g>
 <g>
  <title>Layer 1</title>
  <path id="svg_1" fill="#aaffff" d="m960.004651,279.060572l-100.12535,47.38758l88.61529,-66.26191a500.05556,500.05556 0 0 0 -48.38385,-63.66845l-434.23144,107.93036l392.2334,-149.62354a499.98024,499.98024 0 0 0 -56.95764,-43.41418l-661.66651,106.57714a495.88007,495.88007 0 0 0 -108.6029,309.46058l995.9873,0a495.61333,495.61333 0 0 0 -66.8683,-248.38758z"/>
  <path id="svg_2" fill="#aaffff" d="m747.002471,80.643522a495.97165,495.97165 0 0 0 -218.12317,-50.19537c-153.82965,0 -291.36139,69.75268 -382.71033,179.34869c156.42639,-34.27448 428.77722,-93.60556 600.8335,-129.15332z"/>
  <path id="svg_3" fill="#66ab8c" d="m132.456711,423.441212c39.54046,73.3295 123.45949,104.80828 123.45949,104.80828s19.81128,-87.41184 -19.72917,-160.74134s-123.45948,-104.80828 -123.45948,-104.80828s-19.81129,87.41184 19.72916,160.74134z"/>
  <path id="svg_4" fill="#fedc3d" d="m159.634361,399.316282c71.38681,42.94867 98.88012,128.25655 98.88012,128.25655s-88.24756,15.67433 -159.63436,-27.27433s-98.88012,-128.2565 -98.88012,-128.2565s88.24756,-15.67434 159.63436,27.27428z"/>
  <rect id="svg_5" fill="#3f3d56" height="11.25761" width="525.47393" y="235.54648" x="169.8793"/>
  <rect id="svg_6" fill="#3f3d56" height="11.25761" width="525.47393" y="291.83454" x="169.8793"/>
  <rect id="svg_7" fill="#3f3d56" height="16.88642" width="525.47393" y="345.30819" x="169.8793"/>
  <rect id="svg_8" fill="#3f3d56" transform="rotate(-89.86031341552734 -292.0499267578124,692.0839233398439) " height="11.6772" width="326.09951" y="1234.953533" x="-126.080537"/>
  <rect id="svg_9" fill="#3f3d56" transform="rotate(-89.86031341552734 50.74671936035167,1037.39697265625) " height="11.6772" width="326.09951" y="1581.106423" x="561.192449"/>
  <path id="svg_10" fill="#295f2d" d="m1045.148711,159.802912c-15.73873,15.878 -53.7295,28.4606 -69.60749,12.72186s-3.63052,-53.83886 12.10821,-69.71685a40.48023,40.48023 0 0 1 57.49928,56.995l0,-0.00001z"/>
  <path id="svg_11" fill="#295f2d" d="m975.565521,178.042572a6.70592,6.70592 0 0 0 -5.5421,-5.49349l5.4935,-5.5421l5.5421,5.49349l-5.4935,5.5421z"/>
  <path id="svg_12" fill="#2f2e41" d="m978.299791,175.713282a9.15614,9.15614 0 0 1 -5.95451,-5.85657l1.1114,-0.36323a7.98526,7.98526 0 0 0 5.19493,5.1044l-0.35182,1.1154z"/>
  <polygon id="svg_13" fill="#2f2e41" points="857.795 291.841 856.965 291.017 974.068 173.452 974.899 174.276 857.795 291.841"/>
  <ellipse id="svg_14" opacity="0.4" fill="#fff" transform="rotate(-45.25236129760742 33.63262939453107,698.744384765625) " ry="8.53499" rx="10.24198" cy="1014.076525" cx="1145.559219"/>
  <path id="svg_15" fill="#fedc3d" d="m993.784211,116.502132c-10.51783,19.728 -43.29706,42.68757 -63.025,32.16974s-18.93413,-50.53022 -8.41629,-70.2582a40.48022,40.48022 0 1 1 71.44133,38.08846l-0.00004,0z"/>
  <path id="svg_16" fill="#295f2d" d="m932.366541,153.950412a6.70593,6.70593 0 0 0 -6.88589,-3.67113l3.67117,-6.88591l6.88591,3.67118l-3.67119,6.88586z"/>
  <path id="svg_17" fill="#2f2e41" d="m934.317011,150.934282a9.15612,9.15612 0 0 1 -7.3852,-3.90057l0.96034,-0.667a7.98524,7.98524 0 0 0 6.44164,3.39813l-0.01678,1.16944z"/>
  <polygon id="svg_18" fill="#2f2e41" points="852.224 296.768 851.192 296.218 929.614 149.983 930.646 150.533 852.224 296.768"/>
  <ellipse id="svg_19" opacity="0.4" fill="#fff" transform="rotate(-61.93600082397461 243.457244873047,889.8677978515626) " ry="8.53499" rx="10.24198" cy="1164.483458" cx="1295.959585"/>
  <path id="svg_20" fill="#fedc3d" d="m967.951321,226.473382c-15.73873,15.878 -53.7295,28.4606 -69.60749,12.72187s-3.63052,-53.83887 12.10821,-69.71685a40.48023,40.48023 0 1 1 57.49928,56.995l0,-0.00002z"/>
  <path id="svg_21" fill="#295f2d" d="m898.368131,244.713042a6.70592,6.70592 0 0 0 -5.5421,-5.49349l5.4935,-5.5421l5.54209,5.4935l-5.49349,5.54209z"/>
  <path id="svg_22" fill="#2f2e41" d="m901.102401,242.383792a9.15616,9.15616 0 0 1 -5.95451,-5.85657l1.1114,-0.36324a7.98526,7.98526 0 0 0 5.19493,5.1044l-0.35182,1.11541z"/>
  <rect id="svg_23" fill="#2f2e41" transform="rotate(-45.23741149902344 -113.00640869140628,618.5460815429688) " height="1.16954" width="74.13135" y="1069.124812" x="792.680741"/>
  <ellipse id="svg_24" opacity="0.4" fill="#fff" transform="rotate(-45.25236129760742 -36.56924057006846,663.653076171875) " ry="8.53499" rx="10.24198" cy="1045.655686" cx="998.159949"/>
  <path id="svg_25" fill="#2f2e41" d="m803.360731,55.271972c-11.90191,-20.11054 -35.44888,-21.04778 -35.44888,-21.04778s-22.9452,-2.93421 -37.66438,27.69439c-13.71946,28.54838 -32.65407,56.11242 -3.04832,62.79539l5.34766,-16.64431l3.31178,17.88345a115.84014,115.84014 0 0 0 12.66719,0.2165c31.70537,-1.02364 61.89994,0.29948 60.92772,-11.07773c-1.2924,-15.12441 5.35926,-40.46955 -6.09277,-59.81991z"/>
  <path id="svg_26" fill="#2f2e41" d="m776.079251,496.256752c-1.02639,4.585 -2.86022,9.04809 -2.95869,13.74552s2.16993,9.92968 6.66367,11.30144a15.37173,15.37173 0 0 0 6.5337,0.05762c2.37958,-0.32216 4.908,-0.70947 6.71538,-2.29042c2.53575,-2.218 2.82935,-5.99821 2.85237,-9.36706c0.11455,-16.7614 -1.92434,-33.45443 -3.95987,-50.09217c-0.03033,-0.25653 -10.91415,-0.511 -12.007,-0.00929c-3.17181,1.4562 -2.88591,5.03306 -2.92773,8.07085c-0.13115,9.52481 1.19307,19.18079 -0.91183,28.58351z"/>
  <path id="svg_27" fill="#2f2e41" d="m702.246961,496.256752c1.02639,4.585 2.86022,9.04809 2.95869,13.74552s-2.16993,9.92968 -6.66368,11.30144a15.37168,15.37168 0 0 1 -6.53369,0.05762c-2.37958,-0.32216 -4.908,-0.70947 -6.71538,-2.29042c-2.53575,-2.218 -2.82935,-5.99821 -2.85237,-9.36706c-0.11455,-16.7614 1.92434,-33.45443 3.95987,-50.09217c0.03033,-0.25653 10.91415,-0.511 12.007,-0.00929c3.17181,1.4562 2.88591,5.03306 2.92773,8.07085c0.13115,9.52481 -1.19307,19.18079 0.91183,28.58351z"/>
  <path id="svg_28" fill="#ffb8b8" d="m738.681301,238.718852c5.29133,2.52609 11.34461,2.855 17.20764,2.79009a147.88089,147.88089 0 0 0 38.41448,-5.52557a24.35475,24.35475 0 0 0 6.81222,-2.75354a2.69056,2.69056 0 0 0 1.19667,-1.29772a2.97587,2.97587 0 0 0 0.00757,-1.36134l-2.02556,-13.48906a1.62053,1.62053 0 0 0 -2.028,-1.69035a305.44087,305.44087 0 0 0 -32.96374,1.93148q-8.34132,0.94306 -16.6225,2.34331c-2.9236,0.49445 -11.41675,0.58926 -12.895,3.71165c-0.8799,1.8585 0.899,5.1281 1.34971,6.9359c0.25002,1.00293 0.94203,8.11658 1.54651,8.40515z"/>
  <path id="svg_29" fill="#01abaa" d="m763.384141,235.384172a85.71386,85.71386 0 0 1 -27.18049,-5.50161c-0.38154,-0.14473 -0.87934,-0.26576 -1.14248,0.04613a0.99645,0.99645 0 0 0 -0.17471,0.52576l-2.23409,16.87746c-2.31722,17.50544 -8.42831,34.81127 -12.42161,52.01195c-2.45118,10.55822 -4.90243,21.11667 -7.46349,31.64877c-2.60858,10.7275 -5.334,21.4376 -8.77952,31.92627a243.34852,243.34852 0 0 1 -43.35664,78.69018c-2.21928,2.69007 -4.64123,5.79009 -4.18383,9.24734c0.59254,4.47879 5.51675,6.81324 9.76481,8.351c-3.93028,1.73649 -3.68743,7.93745 -0.54943,10.87267s7.75347,3.485 12.03123,3.889l14.63646,1.38247c3.74623,0.35384 7.68441,0.679 11.12739,-0.83935c2.22377,-0.98068 4.06624,-2.66343 6.22437,-3.78116c7.6319,-3.95266 16.73528,-0.09726 24.85143,2.73072a99.844,99.844 0 0 0 35.25286,5.5137c5.0086,-0.12518 10.84969,-1.164 13.13573,-5.62224c0.8825,-1.72107 1.07407,-3.71514 1.817,-5.50091a9.9127,9.9127 0 0 1 13.2861,-4.71995c4.147,2.23262 6.14,7.20087 10.072,9.79352c3.15878,2.08281 7.13381,2.36339 10.91119,2.58115l21.49031,1.23888a9.08927,9.08927 0 0 0 -0.52577,-9.70536a21.37595,21.37595 0 0 0 16.3816,-35.56774a30.49677,30.49677 0 0 1 -6.53693,-11.90014c-6.99232,-26.18514 -7.57937,-53.71321 -14.01777,-80.04c-1.28931,-5.272 -2.814,-10.49963 -3.632,-15.865c-1.03509,-6.78911 -0.92334,-13.69216 -1.18658,-20.55468a187.6889,187.6889 0 0 0 -8.05175,-47.61394c-3.18919,-10.4316 -7.39968,-20.769 -14.38115,-29.15036a18.40464,18.40464 0 0 0 -6.48079,-5.39858c-2.60108,-1.13465 -5.847,-1.14962 -8.08821,0.591c-1.2982,1.00826 -2.14005,2.48369 -3.27308,3.67456c-2.44122,2.56585 -6.02313,3.63034 -9.4314,4.59308c-6.86357,1.93879 -10.7635,5.83831 -17.89076,5.57541z"/>
  <path id="svg_30" fill="#ffb8b8" d="m703.459081,232.230662c-0.44362,2.22532 -0.949,4.4378 -1.45709,6.64928q-4.55842,19.83869 -9.4261,39.60461a38.74721,38.74721 0 0 1 -2.52671,7.81184c-2.02648,4.152 -5.45759,7.45656 -7.76,11.46218s-3.25456,9.45936 -0.2867,13.00022c1.89833,2.26483 4.922,3.187 7.78728,3.91019c2.72047,0.68665 5.81225,1.23957 8.162,-0.29376c2.50227,-1.63286 3.15324,-4.95564 3.5191,-7.92106c1.55319,-12.589 1.97515,-25.41139 5.44951,-37.61078c1.16054,-4.075 2.65333,-8.04641 4.14431,-12.01242l8.81176,-23.43922c2.19843,-5.84779 4.42667,-11.85053 4.44943,-18.09786a4.37894,4.37894 0 0 0 -1.0219,-3.34206a4.21985,4.21985 0 0 0 -1.58364,-0.801c-3.71677,-1.19748 -13.25909,-2.17819 -15.77074,1.89463c-1.23913,2.00935 -0.637,6.6521 -0.904,9.01125q-0.57922,5.11733 -1.58651,10.17396z"/>
  <path id="svg_31" fill="#ffb8b8" d="m813.762941,217.922702q8.762,24.8 19.37815,48.892a40.09384,40.09384 0 0 1 2.2411,5.87893c0.47352,1.79537 0.68761,3.647 0.99606,5.478c1.60539,9.52987 6.29442,19.09 14.66812,23.91463a9.01,9.01 0 0 0 4.89782,1.47816c3.4586,-0.20036 5.92151,-3.56248 6.87256,-6.89377a17.91184,17.91184 0 0 0 0.54,-7.17813a3.22622,3.22622 0 0 0 -0.59584,-1.70749a3.61552,3.61552 0 0 0 -1.50161,-0.89492c-5.11472,-2.02691 -10.32963,-4.8502 -12.91055,-9.709a27.31268,27.31268 0 0 1 -2.29854,-7.64023l-4.99472,-25.38c-0.59386,-3.01762 -1.18852,-6.03869 -2.00928,-9.00265c-0.67209,-2.42707 -1.49406,-4.8096 -2.31546,-7.19029l-5.45562,-15.81219l-4.01657,-11.64135a1.70942,1.70942 0 0 0 -2.02418,-1.49221l-11.236,-0.00969c-7.45122,-0.00637 -1.60739,15.02699 -0.23544,18.9102z"/>
  <circle id="svg_32" fill="#ffb8b8" r="25.73246" cy="80.47247" cx="761.38659"/>
  <path id="svg_33" fill="#ffb8b8" d="m747.876651,111.730102c-1.47125,2.26921 -3.87257,3.73573 -6.19259,5.12548a86.28987,86.28987 0 0 1 -13.71948,7.13958c-4.30062,1.619 -8.94537,2.59293 -12.68687,5.2608c-3.92648,2.79977 -6.45144,7.22766 -7.83655,11.84691s-1.73686,9.47533 -2.08045,14.28552a6.63339,6.63339 0 0 0 0.23708,2.96029c0.57587,1.42866 2.04683,2.26351 3.45579,2.886c7.174,3.16976 15.20864,3.64859 23.0459,3.95043c15.68984,0.60426 31.3946,0.68446 47.09587,0.76459a39.21592,39.21592 0 0 0 17.891,-2.98654l10.75588,-3.86437a16.97319,16.97319 0 0 0 4.284,-2.008c4.5505,-3.285 4.72326,-10.03631 3.31226,-15.46838c-1.07138,-4.12457 -2.979,-8.31022 -6.55464,-10.62863a26.26176,26.26176 0 0 0 -6.5929,-2.6033a65.88586,65.88586 0 0 1 -21.1767,-11.2152a15.78252,15.78252 0 0 1 -3.87985,-4.02452c-1.927,-3.19255 -1.67926,-7.17721 -1.68115,-10.90624a4.3224,4.3224 0 0 0 -0.962,-3.28611a4.41032,4.41032 0 0 0 -2.60794,-0.84391c-6.10577,-0.60732 -12.43327,-1.06957 -18.44689,0.45618c-3.74259,0.94955 -4.11172,1.1599 -3.95965,4.82257c0.11897,2.86534 -0.09706,5.86433 -1.70012,8.33685z"/>
  <polygon id="svg_34" fill="#2f2e41" points="798.099 53.333 774.835 41.148 742.71 46.133 736.063 75.489 752.609 74.853 757.231 64.067 757.231 74.675 764.865 74.381 769.297 57.211 772.066 75.489 799.207 74.935 798.099 53.333"/>
  <path id="svg_35" opacity="0.1" d="m770.266971,163.552132c-1.032,-15.623 -20.10977,-16.98259 -20.30224,-16.99459l0.03541,-0.58368c0.18447,0.01142 17.19476,1.21677 20.38334,14.4291c0.43576,-4.93706 2.35873,-13.99648 10.57946,-14.42939l0.03084,0.58426c-10.69426,0.56284 -10.14941,16.799 -10.14255,16.96289l-0.58426,0.03141z"/>
  <path id="svg_36" fill="#ff6584" d="m764.695651,159.043122l-58.0204,-11.40135a2.17273,2.17273 0 0 0 -2.92164,1.62731l-2.10273,4.35074a27.02576,27.02576 0 0 0 -3.25448,10.89642l-1.2921,9.71161a8.54662,8.54662 0 0 1 -1.53231,4.56264a8.18462,8.18462 0 0 1 -2.18229,1.6314a18.50845,18.50845 0 0 0 -5.22857,3.84633c-1.38613,1.67741 -2.0711,4.14188 -1.0499,6.06338c1.64892,3.10264 6.34009,2.97594 8.7584,5.52488c2.22738,2.34771 1.79538,6.17 0.51106,9.14044c-0.82918,1.91778 -1.97294,3.82679 -1.8767,5.91393a6.94042,6.94042 0 0 0 3.89787,5.48046a18.13823,18.13823 0 0 0 6.788,1.67042a105.30838,105.30838 0 0 0 14.997,0.437a18.2683,18.2683 0 0 0 7.333,-1.4246c2.25238,-1.10475 4.13622,-3.29594 4.17728,-5.80432c0.06769,-4.1348 -4.63024,-7.403 -4.036,-11.4954a2.27368,2.27368 0 0 1 0.42961,-1.12042c0.80461,-0.991 2.38257,-0.58344 3.6128,-0.92411c1.95542,-0.5415 2.7621,-3.01817 2.326,-4.99976s-1.72685,-3.64487 -2.70865,-5.42053a18.13032,18.13032 0 0 1 -2.208,-10.36848c4.46212,1.09076 -1.30659,5.20453 -0.6733,9.75417c1.5541,11.16483 6.58075,23.929 4.55978,35.01882a3.54646,3.54646 0 0 0 0.34612,2.97486a3.16946,3.16946 0 0 0 1.50354,0.83314c7.39191,2.319 15.23341,-0.788 22.84786,-2.21549a90.54982,90.54982 0 0 1 16.06261,-1.20181q11.9007,-0.08392 23.78651,0.69762c1.99811,0.13145 4.09882,0.26311 5.90859,-0.59388s3.14253,-3.07869 2.30413,-4.89715c6.235,-0.11928 12.10172,3.80743 18.31566,3.28146c6.69643,-0.5668 11.784,-6.03367 16.16981,-11.12564a9.48142,9.48142 0 0 0 2.53978,-4.31913c0.32382,-1.8717 -0.49378,-3.72419 -1.12614,-5.51535a29.95705,29.95705 0 0 1 -1.46515,-6.16494a6.117,6.117 0 0 1 0.44958,-3.90019c0.8087,-1.36784 2.46963,-2.00943 3.42705,-3.27764c1.93658,-2.56519 0.14073,-6.37107 -2.39574,-8.34512s-5.75366,-3.049 -7.97,-5.37672c-3.09965,-3.25533 -3.536,-8.12 -4.31311,-12.54736c-0.68519,-3.90358 -1.83412,-7.88183 -4.43968,-10.86821s-6.9825,-4.71825 -10.663,-3.24821a34.17328,34.17328 0 0 0 -3.29285,1.79794a27.036,27.036 0 0 1 -6.86487,2.20833c-13.2302,2.98502 -26.12624,11.74767 -39.43443,9.13251z"/>
  <path id="svg_37" fill="#9f616a" d="m678.899161,291.162282s30.3627,12.58941 20.7355,19.995s-29.62214,-8.88665 -28.88159,-11.10831s-2.96221,-7.40553 -2.96221,-7.40553l11.1083,-1.48116z"/>
  <path id="svg_38" fill="#6e3667" d="m652.239231,191.928092l9.6272,8.88664l2.22166,25.91938l7.40553,27.40049s12.58942,25.91937 10.36776,31.10325s2.22166,6.665 2.22166,6.665l-17.03274,6.665s-18.51384,-20.73551 -18.51384,-25.17883s3.70277,-81.46093 3.70277,-81.46093z"/>
  <path id="svg_40" fill="#575a88" d="m743.327331,480.164282s-3.70277,17.03273 -4.44332,18.51384s14.07052,6.665 14.07052,6.665l17.77328,-12.58941s-7.40553,-16.29218 -7.40553,-19.2544l-19.99495,6.66497z"/>
  <path id="svg_41" fill="#2f2e41" d="m646.314801,292.643392l5.18388,5.92443s107.38028,13.32996 109.60197,34.06546s17.77328,140.12542 8.88664,143.08763s-31.84381,14.07052 -31.84381,8.14609s-14.81107,-109.02216 -11.84886,-123.83323c0,0 -128.11578,-16.29218 -131.078,-34.806s2.96221,-26.65993 2.96221,-26.65993l48.13597,-5.92445z"/>
  <path id="svg_42" opacity="0.1" d="m646.314801,292.643392l5.18388,5.92443s107.38028,13.32996 109.60197,34.06546s17.77328,140.12542 8.88664,143.08763s-31.84381,14.07052 -31.84381,8.14609s-14.81107,-109.02216 -11.84886,-123.83323c0,0 -128.11578,-16.29218 -131.078,-34.806s2.96221,-26.65993 2.96221,-26.65993l48.13597,-5.92445z"/>
  <path id="svg_43" fill="#2f2e41" d="m741.846221,497.196972s-2.96221,-6.665 -4.44332,-4.44332s-6.665,28.141 -1.48111,28.141s52.57931,11.84886 59.24429,10.36775s19.2544,0.74055 17.77329,-6.665s-8.88664,-8.14609 -8.88664,-8.14609s-27.40049,-16.29219 -28.88159,-24.43828s-9.6272,-3.70276 -9.6272,-3.70276l0,5.18387s-15.55163,11.84892 -23.69772,3.70283z"/>
  <path id="svg_44" fill="#9f616a" d="m601.141031,135.646012s5.18387,25.17883 -5.92443,27.40049s14.07052,17.03278 14.07052,17.03278l16.29218,8.88665l11.84886,-11.84886s-10.738,-21.84634 -2.59194,-38.13852s-33.69519,-3.33254 -33.69519,-3.33254z"/>
  <path id="svg_45" fill="#9f616a" d="m637.428161,177.117022l-11.84886,11.84886l-16.29218,-8.8866s-25.17883,-14.81107 -14.07052,-17.03273c7.14636,-1.42927 7.5462,-12.35984 6.93157,-19.97276a68.86683,68.86683 0 0 0 -1.00714,-7.42773s41.84128,-12.95969 33.69519,3.33249a28.40854,28.40854 0 0 0 -2.54746,7.96837c-2.49576,14.64066 5.1394,30.1701 5.1394,30.1701z"/>
  <polygon id="svg_46" fill="#575a88" points="678.899 480.003 678.899 497.036 707.04 497.036 709.262 490.371 706.3 472.598 678.899 480.003"/>
  <path id="svg_47" fill="#2f2e41" d="m562.632241,307.454462s0,43.69267 17.77328,45.17377s81.46091,9.6272 81.46091,9.6272s3.70277,72.57426 10.36775,96.272s0.74055,25.17882 6.665,26.65993s31.10325,-3.70277 30.3627,-8.88665s-3.70277,-136.26187 -3.70277,-136.26187s6.665,-28.141 -82.20145,-41.471l-60.72542,8.88662z"/>
  <path id="svg_48" fill="#2f2e41" d="m681.120821,491.852282s-4.44332,-9.6272 -5.18387,-6.665s-9.6272,28.88159 -0.74056,31.10325s37.02769,14.07052 55.54153,13.33s20.7355,-1.48111 20.7355,-1.48111s5.18387,-7.40554 -1.48111,-11.84886s-34.06547,-30.3627 -35.54657,-33.32491s-12.58942,-5.18388 -12.58942,0s-15.55162,15.55163 -20.7355,8.88663z"/>
  <path id="svg_49" opacity="0.1" d="m634.836221,144.978502a28.40854,28.40854 0 0 0 -2.54746,7.96837c-3.688,2.229 -6.154,1.65883 -10.78251,1.65883c-6.86494,0 -9.63461,-8.77554 -14.07052,-13.33c-0.348,-4.22854 -6.2947,0.37027 -6.2947,0.37027s41.84128,-12.95969 33.69519,3.33253z"/>
  <circle id="svg_50" fill="#9f616a" r="28.36042" cy="124.76949" cx="620.51887"/>
  <path id="svg_51" fill="#6e3667" d="m661.866431,200.814732s-3.70277,26.65994 -5.92443,36.28713s-5.18388,54.06042 -6.665,59.98485s-10.36775,7.40554 -28.141,5.18387a33.40228,33.40228 0 0 0 -3.36215,-0.2518c-10.9454,-0.348 -23.4681,3.7472 -35.05778,6.96122c-6.665,1.85138 -13.02631,3.40653 -18.60271,3.65834c-8.44233,0.385 -10.91575,-8.97551 -10.62692,-19.10628c0.274,-9.42728 2.94739,-19.53581 5.443,-23.10528c4.49521,-6.428 0.074,-64.13934 1.733,-83.17158l0,-0.00741c0.25167,-2.903 0.64419,-4.90247 1.22925,-5.68745c4.44333,-5.92443 33.32492,-20.7355 36.56113,-20.13566c3.22881,0.59985 30.82926,17.914 30.82926,17.914c6.665,0 6.45019,-7.22781 6.45019,-7.22781s4.65811,8.70892 13.54475,10.93058s12.58941,17.77328 12.58941,17.77328z"/>
  <path id="svg_52" fill="#9f616a" d="m612.362411,296.822142s47.7035,1.51892 39.34684,7.18645s-45.38435,10.85141 -46.1249,3.44587s6.77806,-10.63232 6.77806,-10.63232z"/>
  <path id="svg_53" opacity="0.1" d="m617.773831,302.018782c0.15549,2.84374 -7.49431,9.2495 -9.96782,13.58177c-1.37,2.39939 -11.97469,-0.76279 -25.09,-6.62055a257.26658,257.26658 0 0 1 -29.22963,-15.44794c0.274,-9.42728 2.94739,-19.53581 5.443,-23.10528c4.49521,-6.428 0.074,-64.13934 1.733,-83.17158l0,-0.00741a8.212,8.212 0 0 1 1.22925,-0.50358l8.88665,0c30.3627,14.07052 -4.44332,74.79592 -4.44332,74.79592s45.91432,37.76824 50.35764,39.24935a1.33141,1.33141 0 0 1 1.08123,1.2293z"/>
  <path id="svg_54" fill="#6e3667" d="m570.778331,183.300892l-8.88668,0s-8.14609,2.22166 -14.81107,17.03274s-31.10325,60.7254 -9.6272,78.49868s67.39039,38.50879 70.3526,33.32492s13.33,-13.33 8.88664,-14.81107s-50.35764,-39.24935 -50.35764,-39.24935s34.80605,-60.7254 4.44335,-74.79592z"/>
  <path id="svg_55" fill="#2f2e41" d="m616.155801,111.572652s1.2446,-17.229 16.59847,-10.204s14.352,-12.33821 9.71217,-15.75991s-4.49292,-4.26847 -21.46276,-1.97912s-49.91583,6.16818 -39.26293,40.28942s20.3009,25.34354 20.3009,25.34354s-8.46771,-30.70464 0.1121,-24.8549l8.57981,5.84975l4.5276,-0.959l0.89464,-17.72578z"/>
  <circle id="svg_56" opacity="0.4" fill="#fedc3d" r="31.2479" cy="31.2479" cx="437.6314"/>
  <circle id="svg_57" opacity="0.4" fill="#66ab8c" r="21.92017" cy="46.17227" cx="379.79947"/>
  <circle id="svg_58" opacity="0.4" fill="#66ab8c" r="21.92017" cy="369.17227" cx="926.79947"/>
  <polygon id="svg_59" fill="#2f2e41" points="1028.879 529.448 30.879 529.448 30.879 527.448 1027.879 527.448 1028.879 529.448"/>
 </g>
</svg>